<?xml version="1.0" encoding="UTF-8" standalone="no"?>
<!DOCTYPE svg PUBLIC "-//W3C//DTD SVG 1.1//EN" "http://www.w3.org/Graphics/SVG/1.1/DTD/svg11.dtd">
<!-- Generated by Microsoft Visio, SVG Export add_child.svg add_child -->
<svg xmlns="http://www.w3.org/2000/svg" xmlns:xlink="http://www.w3.org/1999/xlink" xmlns:ev="http://www.w3.org/2001/xml-events"
		xmlns:v="http://schemas.microsoft.com/visio/2003/SVGExtensions/" width="8.5in" height="11in" viewBox="0 0 612 792"
		xml:space="preserve" color-interpolation-filters="sRGB" class="st4">
	<v:documentProperties v:langID="1031" v:viewMarkup="false"/>

	<style type="text/css">
	<![CDATA[
		.st1 {fill:#ffffff;stroke:#000000;stroke-linecap:round;stroke-linejoin:round;stroke-width:0.75}
		.st2 {fill:#000000;stroke:none;stroke-linecap:butt;stroke-width:25.5}
		.st3 {fill:#595959;stroke:none;stroke-linecap:butt;stroke-width:25.5}
		.st4 {fill:none;fill-rule:evenodd;font-size:12px;overflow:visible;stroke-linecap:square;stroke-miterlimit:3}
	]]>
	</style>

	<g v:mID="0" v:index="1" v:groupContext="foregroundPage">
		<title>add_child</title>
		<v:pageProperties v:drawingScale="1" v:pageScale="1" v:drawingUnits="19" v:shadowOffsetX="9" v:shadowOffsetY="-9"/>
		<g id="shape6-1" v:mID="6" v:groupContext="shape" transform="translate(90,-180)">
			<title>Sheet.6</title>
			<ellipse cx="216" cy="576" rx="216" ry="216" class="st1"/>
		</g>
		<g id="shape3-3" v:mID="3" v:groupContext="shape" transform="translate(51,-141)">
			<title>Sheet.3</title>
			<path d="M255 792 C395.83 792 510 677.83 510 537 C510 396.17 395.83 282 255 282 C114.17 282 0 396.17 0 537 C0 677.83
						 114.17 792 255 792 ZM255 741 C142.33 741 51 649.67 51 537 C51 424.33 142.33 333 255 333 C367.67 333 459
						 424.33 459 537 C459 649.67 367.67 741 255 741 Z" class="st2"/>
		</g>
		<g id="group8-5" transform="translate(216,-135)" v:mID="8" v:groupContext="group">
			<title>Sheet.8</title>
			<g id="shape7-6" v:mID="7" v:groupContext="shape" transform="translate(26.6447,-26.6447)">
				<title>Sheet.7</title>
				<ellipse cx="142.105" cy="649.895" rx="142.105" ry="142.105" class="st1"/>
			</g>
			<g id="shape5-8" v:mID="5" v:groupContext="shape">
				<title>Sheet.5</title>
				<path d="M168.75 792 C261.95 792 337.5 716.45 337.5 623.25 C337.5 530.05 261.95 454.5 168.75 454.5 C75.55 454.5 0
							 530.05 0 623.25 C0 716.45 75.55 792 168.75 792 ZM168.75 758.25 C94.19 758.25 33.75 697.81 33.75 623.25
							 C33.75 548.69 94.19 488.25 168.75 488.25 C243.31 488.25 303.75 548.69 303.75 623.25 C303.75 697.81 243.31
							 758.25 168.75 758.25 Z" class="st3"/>
			</g>
			<g id="shape2-10" v:mID="2" v:groupContext="shape" transform="translate(56.9901,-56.9901)">
				<title>Sheet.2</title>
				<path d="M89.41 657.89 L0 657.89 L0 702.59 L89.41 702.59 L89.41 792 L134.11 792 L134.11 702.59 L223.52 702.59 L223.52
							 657.89 L134.11 657.89 L134.11 568.48 L89.41 568.48 L89.41 657.89 Z" class="st3"/>
			</g>
		</g>
	</g>
</svg>
