<?xml version="1.0" encoding="UTF-8" standalone="no"?>
<!DOCTYPE svg PUBLIC "-//W3C//DTD SVG 1.1//EN" "http://www.w3.org/Graphics/SVG/1.1/DTD/svg11.dtd">
<!-- Generated by Microsoft Visio, SVG Export mode_json.svg Page-1 -->
<svg xmlns="http://www.w3.org/2000/svg" xmlns:xlink="http://www.w3.org/1999/xlink" xmlns:ev="http://www.w3.org/2001/xml-events"
		xmlns:v="http://schemas.microsoft.com/visio/2003/SVGExtensions/" width="0.815179in" height="0.618329in"
		viewBox="0 0 58.6929 44.5197" xml:space="preserve" color-interpolation-filters="sRGB" class="st3">
	<v:documentProperties v:langID="1031" v:metric="true" v:viewMarkup="false">
		<v:userDefs>
			<v:ud v:nameU="msvConvertTheme"/>
		</v:userDefs>
	</v:documentProperties>

	<style type="text/css">
	<![CDATA[
		.st1 {fill:#000000}
		.st2 {stroke:#000000;stroke-linecap:round;stroke-linejoin:round;stroke-width:2}
		.st3 {fill:none;fill-rule:evenodd;font-size:12px;overflow:visible;stroke-linecap:square;stroke-miterlimit:3}
	]]>
	</style>

	<g v:mID="0" v:index="1" v:groupContext="foregroundPage">
		<title>Page-1</title>
		<v:pageProperties v:drawingScale="0.0393701" v:pageScale="0.0393701" v:drawingUnits="24" v:shadowOffsetX="8.50394"
				v:shadowOffsetY="-8.50394"/>
		<g id="shape185-1" v:mID="185" v:groupContext="shape" transform="translate(1,-1)">
			<title>Sheet.185</title>
			<path d="M42.52 33.89 A3.54331 3.54331 0 1 1 35.43 33.89 A3.54331 3.54331 0 1 1 42.52 33.89 ZM31.89 33.89 A3.54331 3.54331
						 0 1 1 24.8 33.89 A3.54331 3.54331 0 1 1 31.89 33.89 ZM21.26 33.89 A3.54331 3.54331 0 1 1 14.17 33.89 A3.54331
						 3.54331 0 1 1 21.26 33.89 Z" class="st1"/>
			<path d="M42.52 33.89 A3.54331 3.54331 0 1 1 35.43 33.89 A3.54331 3.54331 0 1 1 42.52 33.89" class="st2"/>
			<path d="M31.89 33.89 A3.54331 3.54331 0 1 1 24.8 33.89 A3.54331 3.54331 0 1 1 31.89 33.89" class="st2"/>
			<path d="M21.26 33.89 A3.54331 3.54331 0 1 1 14.17 33.89 A3.54331 3.54331 0 1 1 21.26 33.89" class="st2"/>
			<path d="M14.17 2 L10.63 2 A3.54331 3.54331 -180 0 0 7.09 5.54 L7.09 19.72 A3.54331 3.54331 0 0 1 3.54 23.26 L0 23.26
						 L3.54 23.26 A3.54331 3.54331 0 0 1 7.09 26.8 L7.09 40.98 A3.54331 3.54331 -180 0 0 10.63 44.52 L14.17 44.52"
					class="st2"/>
			<path d="M42.52 44.52 L46.06 44.52 A3.54331 3.54331 -180 0 0 49.61 40.98 L49.61 26.8 A3.54331 3.54331 0 0 1 53.15 23.26
						 L56.69 23.26 L53.15 23.26 A3.54331 3.54331 0 0 1 49.61 19.72 L49.61 5.54 A3.54331 3.54331 -180 0 0 46.06
						 2 L42.52 2" class="st2"/>
		</g>
	</g>
</svg>
