<svg xmlns="http://www.w3.org/2000/svg" viewBox="0 0 25 25" id="rename">
  <path d="M4,9.4v6.2a1,1,0,0,0,1,1H6.89a.5.5,0,1,1,0,1H5a2,2,0,0,1-2-2V9.4a2,2,0,0,1,2-2H6.89a.5.5,0,0,1,0,1H5A1,1,0,0,0,4,9.4Zm16-2H10.89a.5.5,0,0,0,0,1H20a1,1,0,0,1,1,1v6.2a1,1,0,0,1-1,1H10.89a.5.5,0,0,0,0,1H20a2,2,0,0,0,2-2V9.4A2,2,0,0,0,20,7.4ZM9.559,6.208a.5.5,0,0,0,0-1,1.139,1.139,0,0,0-.671.237,1.141,1.141,0,0,0-.671-.237.5.5,0,0,0,0,1,.171.171,0,0,1,.171.17V18.622a.171.171,0,0,1-.171.17.5.5,0,0,0,0,1,1.141,1.141,0,0,0,.671-.237,1.139,1.139,0,0,0,.671.237.5.5,0,0,0,0-1,.17.17,0,0,1-.171-.17V6.378A.17.17,0,0,1,9.559,6.208Z"></path>
</svg>
